<?xml version="1.0" standalone="no"?>
<!DOCTYPE svg PUBLIC "-//W3C//DTD SVG 20010904//EN"
 "http://www.w3.org/TR/2001/REC-SVG-20010904/DTD/svg10.dtd">
<svg version="1.0" xmlns="http://www.w3.org/2000/svg"
 width="3500.000000pt" height="3500.000000pt" viewBox="0 0 3500.000000 3500.000000"
 preserveAspectRatio="xMidYMid meet">
<metadata>
Created by potrace 1.14, written by Peter Selinger 2001-2017
</metadata>
<g transform="translate(0.000000,3500.000000) scale(0.100000,-0.100000)"
fill="#000000" stroke="none">
<path d="M9849 34986 c-2 -2 -386 -6 -854 -10 -467 -4 -908 -8 -980 -11 -171
-5 -395 -16 -415 -20 -8 -2 -60 -6 -115 -10 -55 -3 -107 -8 -115 -10 -8 -2
-49 -7 -90 -10 -62 -5 -411 -48 -580 -70 -70 -10 -463 -75 -480 -80 -8 -2 -29
-7 -47 -10 -63 -10 -271 -57 -408 -91 -581 -144 -1136 -356 -1703 -651 -554
-287 -1020 -609 -1487 -1026 -92 -82 -444 -433 -525 -523 -30 -33 -71 -78 -90
-100 -258 -287 -631 -797 -792 -1084 -14 -25 -49 -85 -78 -135 -139 -237 -329
-637 -454 -956 -181 -463 -360 -1105 -429 -1544 -3 -16 -12 -75 -21 -130 -9
-55 -21 -127 -26 -160 -6 -33 -19 -130 -31 -215 -11 -85 -22 -164 -24 -176 -1
-11 -6 -52 -10 -90 -3 -38 -8 -82 -10 -99 -2 -16 -6 -66 -10 -110 -3 -44 -8
-98 -10 -120 -2 -22 -7 -98 -11 -170 -3 -71 -8 -155 -9 -185 -3 -49 -9 -231
-20 -615 -16 -522 -20 -2469 -20 -8800 1 -8764 6 -9871 50 -10245 2 -25 7 -74
10 -110 3 -36 8 -83 10 -105 3 -22 7 -62 10 -90 11 -103 21 -185 41 -340 25
-195 28 -220 38 -270 2 -11 7 -40 10 -65 6 -43 18 -119 31 -185 3 -16 12 -66
20 -110 8 -44 17 -89 19 -100 2 -11 12 -56 21 -100 9 -44 18 -87 20 -95 7 -37
68 -280 81 -325 105 -367 145 -489 256 -770 104 -267 147 -365 283 -640 101
-205 231 -443 298 -549 6 -11 43 -70 81 -130 38 -61 99 -154 135 -206 60 -89
288 -399 301 -410 3 -3 44 -52 92 -110 47 -58 96 -116 108 -130 220 -251 437
-471 660 -670 40 -36 78 -69 84 -75 14 -13 186 -157 206 -172 8 -6 40 -32 70
-56 127 -101 346 -259 522 -374 103 -68 190 -123 193 -123 2 0 30 -16 61 -36
180 -115 592 -327 869 -447 362 -156 837 -316 1170 -393 103 -24 104 -24 123
-28 31 -9 362 -76 399 -82 19 -3 45 -8 57 -10 172 -35 591 -92 871 -119 28 -3
66 -7 85 -10 19 -3 69 -7 111 -10 41 -2 93 -7 115 -9 21 -3 80 -7 129 -10 50
-4 119 -8 155 -11 36 -3 108 -7 160 -10 52 -3 136 -7 185 -10 347 -21 3416
-30 10055 -30 5513 0 8150 6 8460 20 219 9 363 16 403 20 23 2 94 6 157 10 63
3 138 8 165 10 28 2 86 7 130 10 44 3 98 8 120 10 39 4 90 9 213 20 31 3 71 8
87 10 17 2 62 7 100 11 39 3 78 8 89 10 10 2 44 6 75 9 31 4 63 8 71 10 8 2
38 7 65 10 44 6 318 50 370 60 40 8 181 35 200 39 172 35 532 125 700 176 39
11 80 23 92 25 43 10 409 138 487 171 44 19 84 34 88 34 5 0 27 9 51 19 23 11
96 42 162 71 379 164 781 385 1145 628 132 89 336 236 405 293 11 9 70 56 130
105 61 48 162 133 225 188 131 115 503 483 602 596 36 41 85 98 109 125 77 88
274 336 359 454 91 125 286 416 316 471 10 19 24 42 30 50 35 45 197 339 297
542 242 487 407 913 538 1388 16 58 31 115 33 128 3 13 9 38 15 55 5 18 26
106 46 197 45 202 41 182 65 315 11 61 22 119 24 130 2 11 7 40 11 65 4 25 9
52 10 60 2 8 6 38 9 65 4 28 9 57 11 65 2 8 6 42 10 75 3 33 8 67 10 75 2 8 6
38 10 65 3 28 10 84 15 125 5 41 12 102 15 135 3 33 8 80 10 105 41 404 41
391 52 2340 9 1699 10 13794 1 15590 -10 1830 -15 2186 -33 2330 -2 19 -7 76
-10 125 -4 50 -8 92 -10 95 -1 3 -6 45 -10 95 -4 49 -8 92 -10 95 -1 3 -6 37
-9 75 -4 39 -8 80 -10 90 -2 11 -7 49 -11 85 -4 36 -8 67 -10 70 -2 3 -6 30
-9 60 -3 30 -11 82 -17 115 -5 33 -14 89 -20 125 -5 36 -11 72 -14 80 -2 8 -7
31 -10 50 -5 30 -24 130 -41 220 -11 55 -54 237 -94 400 -39 156 -184 620
-225 715 -7 17 -38 95 -70 175 -51 127 -76 186 -167 390 -28 62 -181 367 -230
459 -262 488 -580 942 -944 1349 -120 134 -496 507 -624 618 -209 183 -470
390 -636 504 -231 160 -492 325 -655 415 -168 92 -668 336 -699 341 -3 0 -25
10 -50 21 -25 11 -108 44 -185 73 -77 29 -149 56 -160 61 -77 33 -527 174
-651 204 -10 3 -64 16 -119 30 -197 50 -503 115 -660 139 -22 4 -65 11 -95 16
-30 5 -77 12 -105 16 -27 3 -57 7 -65 9 -16 3 -69 11 -135 20 -140 20 -245 34
-305 40 -119 13 -137 15 -205 20 -38 3 -97 8 -130 10 -216 17 -502 29 -980 40
-148 3 -391 9 -540 12 -271 6 -16180 15 -16186 9z"/>
</g>
</svg>
